<mxfile host="65bd71144e">
    <diagram name="‫עמוד-1‬" id="F55A_K87r4TDkYMqZIRE">
        <mxGraphModel dx="589" dy="2503" grid="1" gridSize="10" guides="1" tooltips="1" connect="1" arrows="1" fold="1" page="1" pageScale="1" pageWidth="827" pageHeight="1169" math="0" shadow="0">
            <root>
                <mxCell id="0"/>
                <mxCell id="1" parent="0"/>
                <mxCell id="b_VYdjGOnhYr2Ikj1xQT-1" value="סיום תכנית" style="ellipse;whiteSpace=wrap;html=1;rounded=1;sketch=1;curveFitting=1;jiggle=2;" parent="1" vertex="1">
                    <mxGeometry x="314" y="488" width="120" height="80" as="geometry"/>
                </mxCell>
                <mxCell id="b_VYdjGOnhYr2Ikj1xQT-40" style="edgeStyle=orthogonalEdgeStyle;rounded=1;orthogonalLoop=1;jettySize=auto;html=1;entryX=1;entryY=0.5;entryDx=0;entryDy=0;sketch=1;curveFitting=1;jiggle=2;" parent="1" edge="1">
                    <mxGeometry relative="1" as="geometry">
                        <mxPoint x="510.07692307692287" y="479" as="sourcePoint"/>
                        <mxPoint x="434.00000000000273" y="527" as="targetPoint"/>
                        <Array as="points">
                            <mxPoint x="510" y="527"/>
                        </Array>
                    </mxGeometry>
                </mxCell>
                <mxCell id="b_VYdjGOnhYr2Ikj1xQT-3" value="הכנס לסל של הלבן" style="rounded=1;whiteSpace=wrap;html=1;sketch=1;curveFitting=1;jiggle=2;" parent="1" vertex="1">
                    <mxGeometry x="440" y="420" width="120" height="60" as="geometry"/>
                </mxCell>
                <mxCell id="b_VYdjGOnhYr2Ikj1xQT-26" style="edgeStyle=orthogonalEdgeStyle;rounded=1;orthogonalLoop=1;jettySize=auto;html=1;entryX=0.5;entryY=0;entryDx=0;entryDy=0;sketch=1;curveFitting=1;jiggle=2;" parent="1" source="b_VYdjGOnhYr2Ikj1xQT-4" target="b_VYdjGOnhYr2Ikj1xQT-3" edge="1">
                    <mxGeometry relative="1" as="geometry"/>
                </mxCell>
                <mxCell id="b_VYdjGOnhYr2Ikj1xQT-36" value="כן" style="edgeLabel;html=1;align=center;verticalAlign=middle;resizable=0;points=[];rounded=1;sketch=1;curveFitting=1;jiggle=2;" parent="b_VYdjGOnhYr2Ikj1xQT-26" vertex="1" connectable="0">
                    <mxGeometry x="-0.1733" y="1" relative="1" as="geometry">
                        <mxPoint as="offset"/>
                    </mxGeometry>
                </mxCell>
                <mxCell id="b_VYdjGOnhYr2Ikj1xQT-37" style="edgeStyle=orthogonalEdgeStyle;rounded=1;orthogonalLoop=1;jettySize=auto;html=1;sketch=1;curveFitting=1;jiggle=2;" parent="1" source="b_VYdjGOnhYr2Ikj1xQT-4" target="b_VYdjGOnhYr2Ikj1xQT-17" edge="1">
                    <mxGeometry relative="1" as="geometry"/>
                </mxCell>
                <mxCell id="b_VYdjGOnhYr2Ikj1xQT-38" value="לא" style="edgeLabel;html=1;align=center;verticalAlign=middle;resizable=0;points=[];rounded=1;sketch=1;curveFitting=1;jiggle=2;" parent="b_VYdjGOnhYr2Ikj1xQT-37" vertex="1" connectable="0">
                    <mxGeometry x="-0.3267" y="1" relative="1" as="geometry">
                        <mxPoint as="offset"/>
                    </mxGeometry>
                </mxCell>
                <mxCell id="b_VYdjGOnhYr2Ikj1xQT-4" value="האם הבגד לבן?" style="rhombus;whiteSpace=wrap;html=1;rounded=1;sketch=1;curveFitting=1;jiggle=2;" parent="1" vertex="1">
                    <mxGeometry x="460" y="290" width="80" height="80" as="geometry"/>
                </mxCell>
                <mxCell id="b_VYdjGOnhYr2Ikj1xQT-20" style="edgeStyle=orthogonalEdgeStyle;rounded=1;orthogonalLoop=1;jettySize=auto;html=1;entryX=0.55;entryY=0.183;entryDx=0;entryDy=0;entryPerimeter=0;sketch=1;curveFitting=1;jiggle=2;" parent="1" source="b_VYdjGOnhYr2Ikj1xQT-12" target="b_VYdjGOnhYr2Ikj1xQT-13" edge="1">
                    <mxGeometry relative="1" as="geometry"/>
                </mxCell>
                <mxCell id="b_VYdjGOnhYr2Ikj1xQT-12" value="התחלת התכנית" style="ellipse;whiteSpace=wrap;html=1;rounded=1;sketch=1;curveFitting=1;jiggle=2;" parent="1" vertex="1">
                    <mxGeometry x="320" y="-2" width="120" height="80" as="geometry"/>
                </mxCell>
                <mxCell id="b_VYdjGOnhYr2Ikj1xQT-21" style="edgeStyle=orthogonalEdgeStyle;rounded=1;orthogonalLoop=1;jettySize=auto;html=1;sketch=1;curveFitting=1;jiggle=2;" parent="1" source="b_VYdjGOnhYr2Ikj1xQT-13" target="b_VYdjGOnhYr2Ikj1xQT-16" edge="1">
                    <mxGeometry relative="1" as="geometry"/>
                </mxCell>
                <mxCell id="b_VYdjGOnhYr2Ikj1xQT-13" value="קבלת בגד מהלקוח" style="shape=parallelogram;perimeter=parallelogramPerimeter;whiteSpace=wrap;html=1;fixedSize=1;rounded=1;sketch=1;curveFitting=1;jiggle=2;" parent="1" vertex="1">
                    <mxGeometry x="314" y="109" width="120" height="60" as="geometry"/>
                </mxCell>
                <mxCell id="b_VYdjGOnhYr2Ikj1xQT-25" style="edgeStyle=orthogonalEdgeStyle;rounded=1;orthogonalLoop=1;jettySize=auto;html=1;sketch=1;curveFitting=1;jiggle=2;" parent="1" source="b_VYdjGOnhYr2Ikj1xQT-16" target="b_VYdjGOnhYr2Ikj1xQT-18" edge="1">
                    <mxGeometry relative="1" as="geometry"/>
                </mxCell>
                <mxCell id="b_VYdjGOnhYr2Ikj1xQT-33" value="כן" style="edgeLabel;html=1;align=center;verticalAlign=middle;resizable=0;points=[];rounded=1;sketch=1;curveFitting=1;jiggle=2;" parent="b_VYdjGOnhYr2Ikj1xQT-25" vertex="1" connectable="0">
                    <mxGeometry x="0.3467" y="1" relative="1" as="geometry">
                        <mxPoint as="offset"/>
                    </mxGeometry>
                </mxCell>
                <mxCell id="b_VYdjGOnhYr2Ikj1xQT-34" style="edgeStyle=orthogonalEdgeStyle;rounded=1;orthogonalLoop=1;jettySize=auto;html=1;sketch=1;curveFitting=1;jiggle=2;" parent="1" source="b_VYdjGOnhYr2Ikj1xQT-16" target="b_VYdjGOnhYr2Ikj1xQT-4" edge="1">
                    <mxGeometry relative="1" as="geometry"/>
                </mxCell>
                <mxCell id="b_VYdjGOnhYr2Ikj1xQT-35" value="לא" style="edgeLabel;html=1;align=center;verticalAlign=middle;resizable=0;points=[];rounded=1;sketch=1;curveFitting=1;jiggle=2;" parent="b_VYdjGOnhYr2Ikj1xQT-34" vertex="1" connectable="0">
                    <mxGeometry x="0.1091" y="1" relative="1" as="geometry">
                        <mxPoint as="offset"/>
                    </mxGeometry>
                </mxCell>
                <mxCell id="b_VYdjGOnhYr2Ikj1xQT-16" value="האם הבגד שחור?" style="rhombus;whiteSpace=wrap;html=1;rounded=1;sketch=1;curveFitting=1;jiggle=2;" parent="1" vertex="1">
                    <mxGeometry x="334" y="190" width="80" height="80" as="geometry"/>
                </mxCell>
                <mxCell id="b_VYdjGOnhYr2Ikj1xQT-43" style="edgeStyle=orthogonalEdgeStyle;rounded=1;orthogonalLoop=1;jettySize=auto;html=1;entryX=1;entryY=0.5;entryDx=0;entryDy=0;sketch=1;curveFitting=1;jiggle=2;" parent="1" source="b_VYdjGOnhYr2Ikj1xQT-17" target="b_VYdjGOnhYr2Ikj1xQT-1" edge="1">
                    <mxGeometry relative="1" as="geometry"/>
                </mxCell>
                <mxCell id="b_VYdjGOnhYr2Ikj1xQT-17" value="הכנס לסל של הצבעוני" style="rounded=1;whiteSpace=wrap;html=1;sketch=1;curveFitting=1;jiggle=2;" parent="1" vertex="1">
                    <mxGeometry x="590" y="498" width="120" height="60" as="geometry"/>
                </mxCell>
                <mxCell id="b_VYdjGOnhYr2Ikj1xQT-31" style="edgeStyle=orthogonalEdgeStyle;rounded=1;orthogonalLoop=1;jettySize=auto;html=1;sketch=1;curveFitting=1;jiggle=2;" parent="1" source="b_VYdjGOnhYr2Ikj1xQT-18" target="b_VYdjGOnhYr2Ikj1xQT-1" edge="1">
                    <mxGeometry relative="1" as="geometry"/>
                </mxCell>
                <mxCell id="b_VYdjGOnhYr2Ikj1xQT-18" value="הכנס לסל של השחור" style="rounded=1;whiteSpace=wrap;html=1;sketch=1;curveFitting=1;jiggle=2;" parent="1" vertex="1">
                    <mxGeometry x="314" y="300" width="120" height="60" as="geometry"/>
                </mxCell>
            </root>
        </mxGraphModel>
    </diagram>
</mxfile>